<svg width="42" height="40" viewBox="0 0 42 40" fill="none" xmlns="http://www.w3.org/2000/svg">
<path d="M17.1958 3.70821C18.3932 0.0229656 23.6068 0.0229619 24.8042 3.7082L26.8374 9.96556C27.3729 11.6136 28.9087 12.7295 30.6416 12.7295H37.221C41.0959 12.7295 42.707 17.688 39.5721 19.9656L34.2493 23.8328C32.8473 24.8514 32.2607 26.6569 32.7962 28.305L34.8293 34.5623C36.0267 38.2475 31.8088 41.312 28.674 39.0344L23.3511 35.1672C21.9492 34.1486 20.0508 34.1486 18.6489 35.1672L13.326 39.0344C10.1912 41.312 5.97326 38.2475 7.17067 34.5623L9.20381 28.305C9.7393 26.6569 9.15267 24.8514 7.75072 23.8328L2.4279 19.9656C-0.706953 17.688 0.904146 12.7295 4.77904 12.7295H11.3584C13.0913 12.7295 14.6271 11.6136 15.1626 9.96556L17.1958 3.70821Z" fill="#3E5240"/>
</svg>
